<?xml version="1.0" standalone="no"?>
<!DOCTYPE svg PUBLIC "-//W3C//DTD SVG 20010904//EN"
 "http://www.w3.org/TR/2001/REC-SVG-20010904/DTD/svg10.dtd">
<svg version="1.0" xmlns="http://www.w3.org/2000/svg"
 width="150.000000pt" height="150.000000pt" viewBox="0 0 150.000000 150.000000"
 preserveAspectRatio="xMidYMid meet">
<metadata>
Created by potrace 1.11, written by Peter Selinger 2001-2013
</metadata>
<g transform="translate(0.000000,150.000000) scale(0.100000,-0.100000)"
fill="#000000" stroke="none">
<path d="M770 945 l0 -105 105 0 106 0 -3 103 -3 102 -102 3 -103 3 0 -106z
m180 -5 l0 -80 -80 0 -80 0 0 80 0 80 80 0 80 0 0 -80z"/>
<path d="M810 940 l0 -60 65 0 65 0 0 60 0 60 -65 0 -65 0 0 -60z"/>
<path d="M542 718 l3 -103 103 -3 102 -3 0 106 0 105 -105 0 -106 0 3 -102z
m188 2 l0 -80 -80 0 -80 0 0 80 0 80 80 0 80 0 0 -80z"/>
<path d="M584 766 c-3 -7 -4 -35 -2 -62 l3 -49 63 -3 62 -3 0 66 0 65 -60 0
c-42 0 -62 -4 -66 -14z"/>
<path d="M770 715 l0 -106 103 3 102 3 3 103 3 102 -106 0 -105 0 0 -105z
m180 5 l0 -80 -80 0 -80 0 0 80 0 80 80 0 80 0 0 -80z"/>
<path d="M810 715 l0 -66 63 3 62 3 3 63 3 62 -66 0 -65 0 0 -65z"/>
<path d="M540 490 l0 -100 105 0 105 0 0 100 0 100 -105 0 -105 0 0 -100z
m190 0 l0 -80 -80 0 -80 0 0 80 0 80 80 0 80 0 0 -80z"/>
<path d="M580 490 l0 -60 65 0 65 0 0 60 0 60 -65 0 -65 0 0 -60z"/>
</g>
</svg>
